# xmcd
#
# Track frame offsets: 
#        150
#        15313
#        32310
#        47276
#        68451
#        86693
#        103300
#        121402
#        141665
#        162140
#        181709
#        198150
#        220379
#        248497
#
# Disc length: 3543 seconds
#
# Revision: 0
# Processed by: cddbd v1.5.2PL0 Copyright (c) Steve Scherf et al.
# Submitted via: ExactAudioCopy v0.99pb3
#
DISCID=ad0dd50e
DTITLE=С.Фалетенок, Е.Каргаполов - Блюз для вас "Live in club"
DYEAR=2006
DGENRE=Blues
TTITLE0=Лёжа на диване
TTITLE1=Я удивлён
TTITLE2=Джон Леннон
TTITLE3=Земля...
TTITLE4=Таганка Блюз
TTITLE5=Пазик
TTITLE6=Море волнуется раз...
TTITLE7=Не за твоим ли снегом...
TTITLE8=Карлик
TTITLE9=Каравай
TTITLE10=Я оттачиваю стиль
TTITLE11=Сторож Ипполит
TTITLE12=Будда
TTITLE13=Товарнячок
EXTD=
EXTT0=
EXTT1=
EXTT2=
EXTT3=
EXTT4=
EXTT5=
EXTT6=
EXTT7=
EXTT8=
EXTT9=
EXTT10=
EXTT11=
EXTT12=
EXTT13=
PLAYORDER=
